<svg width="733" height="272" viewBox="0 0 733 272" fill="none" xmlns="http://www.w3.org/2000/svg">
<path d="M20.2489 272V106.382C20.2489 87.6444 25.3867 73.8429 35.6622 64.9777C46.1393 55.9111 61.5526 51.3778 81.9022 51.3778H96.4089V83.4133H78.88C72.6341 83.4133 67.7985 85.1259 64.3733 88.5511C61.1496 91.7748 59.5378 96.4089 59.5378 102.453V272H20.2489ZM0 142.347V111.52H97.6178V142.347H0ZM130.258 272V51.3778H172.267V272H130.258ZM111.218 82.8089V51.3778H172.267V82.8089H111.218Z" fill="white"/>
<path d="M550.347 272L581.476 113.333H629.831L665.796 272H632.551L595.982 114.24H613.511L581.173 272H550.347ZM537.956 272L537.653 237.547H571.2V272H537.956ZM521.031 272L476.302 107.893H517.102L559.716 272H521.031ZM643.129 272V237.547H676.676L676.373 272H643.129ZM656.427 272L694.204 107.893H732.284L692.693 272H656.427Z" fill="white"/>
<path d="M198.258 167.974C198.258 154.314 200.948 140.787 206.176 128.166C211.404 115.545 219.066 104.077 228.726 94.4178C238.386 84.7582 249.853 77.0956 262.474 71.8678C275.095 66.6406 288.622 63.9496 302.283 63.9496V167.974H198.258Z" fill="#23216E"/>
<path d="M198.352 166.222C198.352 179.883 201.043 193.41 206.27 206.032C211.498 218.652 219.161 230.12 228.82 239.779C238.48 249.439 249.947 257.102 262.568 262.329C275.19 267.557 288.716 270.248 302.377 270.248V166.222H198.352Z" fill="#45D2B0"/>
<path d="M406.307 167.975C406.307 181.636 403.618 195.162 398.391 207.784C393.163 220.405 385.501 231.872 375.84 241.532C366.18 251.191 354.713 258.854 342.091 264.082C329.471 269.31 315.944 272 302.283 272V167.975H406.307Z" fill="#23216E"/>
<path d="M470.446 78.1063C470.446 121.243 435.476 156.213 392.339 156.213H314.234V78.1063C314.234 34.9695 349.203 0 392.339 0C435.476 0 470.446 34.9695 470.446 78.1063Z" fill="#45D2B0"/>
</svg>
