<svg width="122" height="45" viewBox="0 0 122 45" fill="none" xmlns="http://www.w3.org/2000/svg">
<path d="M3.35 45V17.6C3.35 14.5 4.2 12.2167 5.9 10.75C7.63333 9.25 10.1833 8.5 13.55 8.5H15.95V13.8H13.05C12.0167 13.8 11.2167 14.0833 10.65 14.65C10.1167 15.1833 9.85 15.95 9.85 16.95V45H3.35ZM0 23.55V18.45H16.15V23.55H0ZM21.55 45V8.5H28.5V45H21.55ZM18.4 13.7V8.5H28.5V13.7H18.4Z" fill="#26263C"/>
<path d="M91.05 45L96.2 18.75H104.2L110.15 45H104.65L98.6 18.9H101.5L96.15 45H91.05ZM89 45L88.95 39.3H94.5V45H89ZM86.2 45L78.8 17.85H85.55L92.6 45H86.2ZM106.4 45V39.3H111.95L111.9 45H106.4ZM108.6 45L114.85 17.85H121.15L114.6 45H108.6Z" fill="#26263C"/>
<path d="M32.8 27.7899C32.8 25.5299 33.2451 23.2919 34.11 21.204C34.9749 19.1159 36.2426 17.2187 37.8407 15.6206C39.4388 14.0225 41.336 12.7548 43.424 11.8899C45.5121 11.0251 47.75 10.5799 50.0101 10.5799V27.7899H32.8Z" fill="#23216E"/>
<path d="M32.8156 27.5C32.8156 29.7601 33.2607 31.998 34.1256 34.0861C34.9905 36.1741 36.2582 38.0713 37.8563 39.6694C39.4544 41.2675 41.3516 42.5352 43.4396 43.4001C45.5277 44.265 47.7656 44.7101 50.0257 44.7101V27.5H32.8156Z" fill="#45D2B0"/>
<path d="M67.2199 27.7899C67.2199 30.05 66.7751 32.2879 65.9103 34.376C65.0454 36.464 63.7778 38.3612 62.1794 39.9593C60.5813 41.5574 58.6841 42.8251 56.596 43.69C54.5081 44.5549 52.2701 45 50.0101 45V27.7899H67.2199Z" fill="#23216E"/>
<path d="M77.8312 12.922C77.8312 20.0586 72.0456 25.844 64.9091 25.844H51.9872V12.922C51.9872 5.7854 57.7726 0 64.9091 0C72.0456 0 77.8312 5.7854 77.8312 12.922Z" fill="#45D2B0"/>
</svg>
